<svg width="15" height="15" viewBox="0 0 15 15" fill="none" xmlns="http://www.w3.org/2000/svg">
<path d="M9.79822 10.5643C10.0098 10.7758 10.3527 10.7758 10.5643 10.5643C10.7758 10.3527 10.7758 10.0098 10.5643 9.79822L8.26616 7.50013L10.5643 5.20204C10.7758 4.9905 10.7758 4.64754 10.5643 4.43601C10.3527 4.22447 10.0098 4.22447 9.79822 4.43601L7.50013 6.7341L5.20203 4.43599C4.99049 4.22446 4.64753 4.22446 4.43599 4.43599C4.22446 4.64753 4.22446 4.99049 4.43599 5.20203L6.7341 7.50013L4.43599 9.79823C4.22446 10.0098 4.22446 10.3527 4.43599 10.5643C4.64753 10.7758 4.99049 10.7758 5.20203 10.5643L7.50013 8.26616L9.79822 10.5643Z" fill="#999999"/>
</svg>
