<svg width="159" height="112" viewBox="0 0 159 112" fill="none" xmlns="http://www.w3.org/2000/svg">
<path d="M119.25 80C128.019 80 135.15 87.1759 135.15 96C135.15 104.824 128.019 112 119.25 112C110.481 112 103.35 104.824 103.35 96C103.35 87.1759 110.481 80 119.25 80ZM119.25 106.667C125.096 106.667 129.85 101.882 129.85 96C129.85 90.1172 125.096 85.3334 119.25 85.3334C113.404 85.3334 108.65 90.1175 108.65 96C108.65 101.883 113.404 106.667 119.25 106.667Z" fill="white"/>
<path d="M116.6 93.3344H121.9V98.6679H116.6V93.3344Z" fill="white"/>
<path d="M29.1502 80C37.9191 80 45.0502 87.1759 45.0502 96C45.0502 104.824 37.9191 112 29.1502 112C20.3813 112 13.2502 104.824 13.2502 96C13.2502 87.1759 20.3813 80 29.1502 80ZM29.1502 106.667C34.9959 106.667 39.7501 101.883 39.7501 96C39.7501 90.1172 34.9959 85.3334 29.1502 85.3334C23.3045 85.3334 18.5503 90.1175 18.5503 96C18.55 101.883 23.3041 106.667 29.1502 106.667Z" fill="white"/>
<path d="M26.5 93.3344H31.8001V98.6679H26.5V93.3344Z" fill="white"/>
<path d="M0.188187 73.6763L16.0882 33.6763C16.4938 32.6657 17.4661 32.0016 18.5499 32.0016H53.0002C54.4656 32.0016 55.6501 33.1963 55.6501 34.6682V96.0016C55.6501 97.4763 54.4656 98.6682 53.0002 98.6682H42.4003V93.3347H50.3503V37.3348H20.3443L5.30011 75.1801V93.3347H15.9V98.6682H2.6499C1.18442 98.6682 0 97.4763 0 96.0016V74.6682C0 74.3297 0.0636597 73.9935 0.188187 73.6763Z" fill="white"/>
<path d="M53 10.6668H156.35C157.813 10.6668 159 11.8615 159 13.3334V96.0003C159 97.475 157.813 98.6668 156.35 98.6668H132.5V93.3334H153.7V16.0002H55.6499V93.3337H106V98.6671L53.0002 98.6682C51.5347 98.6682 50.3498 97.4753 50.3498 96.0006V13.3337C50.3498 11.8615 51.5345 10.6668 53 10.6668Z" fill="white"/>
<path d="M34.4498 64.0019V48.0019H15.8999V42.6684H37.1C38.5655 42.6684 39.7499 43.8631 39.7499 45.335V66.6684C39.7499 68.1431 38.5655 69.335 37.1 69.335H5.29996V64.0019H34.4498Z" fill="white"/>
<path d="M2.64955 82.6685H10.5996V88.0019H2.64955V82.6685Z" fill="white"/>
<path d="M137.8 82.6685H159V88.0019H137.8V82.6685Z" fill="white"/>
<path d="M52.9998 82.6685H100.7V88.0019H52.9998V82.6685Z" fill="white"/>
<path d="M63.5999 64.0013H145.75V69.3347H63.5999V64.0013Z" fill="white"/>
<path d="M124.55 0H148.4V5.33343H124.55V0Z" fill="white"/>
<path d="M153.7 0H159V5.33343H153.7V0Z" fill="white"/>
</svg>
