<svg width="112" height="112" viewBox="0 0 112 112" fill="none" xmlns="http://www.w3.org/2000/svg">
<g opacity="0.05">
<path d="M110.133 0H50.4001C49.3697 0 48.5335 0.836283 48.5335 1.8666V110.133C48.5335 111.166 49.3697 112 50.4001 112H110.133C111.166 112 112 111.166 112 110.133V1.8666C112 0.836283 111.166 0 110.133 0ZM108.267 108.267H52.2666V3.73341H108.267V108.267Z" fill="#999999"/>
<path d="M50.4 57.8664H1.86659C0.83628 57.8664 0 58.7007 0 59.733V110.133C0 111.166 0.83628 112 1.86659 112L50.4001 112C51.4304 112 52.2665 111.166 52.2665 110.133V59.7332C52.2665 58.7009 51.4303 57.8664 50.4 57.8664ZM48.5334 108.266H3.7334V61.5998H48.5334V108.266Z" fill="#999999"/>
<path d="M42.9335 20.5331H5.60017C4.56986 20.5331 3.73358 21.3694 3.73358 22.3997V59.7332C3.73358 60.7655 4.56986 61.5998 5.60017 61.5998H42.9335C43.9639 61.5998 44.8001 60.7655 44.8001 59.7332V22.3997C44.8001 21.3694 43.9639 20.5331 42.9335 20.5331ZM41.0667 57.8664H7.46676V24.2663H41.0667V57.8664Z" fill="#999999"/>
<path d="M31.7334 57.8664H20.5334C19.5031 57.8664 18.6668 58.7007 18.6668 59.733V70.933C18.6668 71.9653 19.5031 72.7996 20.5334 72.7996H31.7334C32.7637 72.7996 33.6 71.9653 33.6 70.933V59.733C33.6 58.7009 32.7637 57.8664 31.7334 57.8664ZM29.8666 69.0664H22.4V61.5998H29.8666V69.0664Z" fill="#999999"/>
<path d="M29.8665 20.5331H18.6665C17.6362 20.5331 16.7999 21.3694 16.7999 22.3997V33.5998C16.7999 34.6301 17.6362 35.4664 18.6665 35.4664H29.8665C30.8968 35.4664 31.7331 34.6301 31.7331 33.5998V22.3997C31.7333 21.3694 30.897 20.5331 29.8665 20.5331ZM27.9999 31.7332H20.5333V24.2666H27.9999V31.7332Z" fill="#999999"/>
<path d="M89.6 0H78.4C77.3677 0 76.5334 0.836283 76.5334 1.8666V13.0666C76.5334 14.0969 77.3677 14.9332 78.4 14.9332H89.6C90.6323 14.9332 91.4666 14.0969 91.4666 13.0666V1.8666C91.4666 0.836283 90.6323 0 89.6 0ZM87.7334 11.2H80.2668V3.73341H87.7334V11.2Z" fill="#999999"/>
<path d="M87.7334 84.0002H76.5334C75.5011 84.0002 74.6668 84.8345 74.6668 85.8668V89.6002C74.6668 93.7182 78.0156 97.0668 82.1334 97.0668C86.2513 97.0668 89.6 93.7179 89.6 89.6002V85.8668C89.6 84.8345 88.7656 84.0002 87.7334 84.0002ZM85.8666 89.6002C85.8666 91.6591 84.1923 93.3336 82.1332 93.3336C80.0743 93.3336 78.3998 91.6593 78.3998 89.6002V87.7336H85.8663L85.8666 89.6002Z" fill="#999999"/>
<path d="M87.7334 100.799H76.5334V104.532H87.7334V100.799Z" fill="#999999"/>
<path d="M83.9998 95.2015H80.2664V102.668H83.9998V95.2015Z" fill="#999999"/>
<path d="M104.533 100.799H93.3333V104.532H104.533V100.799Z" fill="#999999"/>
<path d="M100.8 85.8664H97.0667V97.0664H100.8V85.8664Z" fill="#999999"/>
<path d="M100.253 84.5457C99.523 83.8158 98.3433 83.8158 97.6135 84.5457L92.0135 90.1458L94.653 92.7852L98.9333 88.5049L103.214 92.7852L105.853 90.1458L100.253 84.5457Z" fill="#999999"/>
<path d="M63.4665 84.0002C59.3488 84.0002 55.9999 87.349 55.9999 91.4668V93.3334C55.9999 94.3657 56.8343 95.2 57.8665 95.2H69.0665C70.0988 95.2 70.9331 94.3657 70.9331 93.3334V91.4668C70.9333 87.349 67.5845 84.0002 63.4665 84.0002ZM59.7333 91.4668C59.7333 89.4079 61.4077 87.7334 63.4667 87.7334C65.5256 87.7334 67.2001 89.4077 67.2001 91.4668H59.7333Z" fill="#999999"/>
<path d="M61.6 93.332V100.799H57.8666V104.532H63.4666C64.4989 104.532 65.3332 103.698 65.3332 102.665V93.332H61.6Z" fill="#999999"/>
<path d="M37.3332 50.3994H33.5998V54.1329H37.3332V50.3994Z" fill="#999999"/>
<path d="M29.8667 50.3994H26.1333V54.1329H29.8667V50.3994Z" fill="#999999"/>
<path d="M22.4 50.3994H18.6666V54.1329H22.4V50.3994Z" fill="#999999"/>
<path d="M44.8001 100.799H41.0667V104.532H44.8001V100.799Z" fill="#999999"/>
<path d="M37.3332 100.799H33.5998V104.532H37.3332V100.799Z" fill="#999999"/>
<path d="M29.8667 100.799H26.1333V104.532H29.8667V100.799Z" fill="#999999"/>
</g>
</svg>
