<svg width="112" height="112" viewBox="0 0 112 112" fill="none" xmlns="http://www.w3.org/2000/svg">
<g opacity="0.05">
<path d="M61.6001 82.1333C69.8341 82.1333 76.5335 88.8327 76.5335 97.0666C76.5335 105.301 69.8341 112 61.6001 112C53.3662 112 46.6668 105.301 46.6668 97.0666C46.6668 88.8327 53.3662 82.1333 61.6001 82.1333ZM61.6001 108.266C67.777 108.266 72.8001 103.243 72.8001 97.0664C72.8001 90.8896 67.777 85.8664 61.6001 85.8664C55.4233 85.8664 50.4002 90.8896 50.4002 97.0664C50.4002 103.243 55.4233 108.266 61.6001 108.266Z" fill="#999999"/>
<path d="M100.8 89.6001C106.977 89.6001 112 94.6233 112 100.8C112 106.977 106.977 112 100.8 112C94.6232 112 89.6 106.977 89.6 100.8C89.6 94.6233 94.6232 89.6001 100.8 89.6001ZM100.8 108.267C104.918 108.267 108.267 104.918 108.267 100.8C108.267 96.6821 104.918 93.3335 100.8 93.3335C96.6823 93.3335 93.3334 96.6823 93.3334 100.8C93.3334 104.918 96.682 108.267 100.8 108.267Z" fill="#999999"/>
<path d="M1.86659 57.8659H33.6C34.6323 57.8659 35.4666 58.7002 35.4666 59.7325V89.5991C35.4666 90.6314 34.6323 91.4657 33.6 91.4657H1.86659C0.834312 91.4657 0 90.6314 0 89.5991V59.7327C0 58.7004 0.834312 57.8659 1.86659 57.8659ZM3.7334 87.7325H31.7334V61.5993H3.7334V87.7325Z" fill="#999999"/>
<path d="M13.0665 57.8659H22.3999C23.4322 57.8659 24.2665 58.7002 24.2665 59.7325V70.9324C24.2665 71.9647 23.4322 72.799 22.3999 72.799H13.0665C12.0342 72.799 11.1999 71.9647 11.1999 70.9324V59.7325C11.1999 58.7004 12.0342 57.8659 13.0665 57.8659ZM14.9333 69.0658H20.5333V61.5993H14.9333V69.0658Z" fill="#999999"/>
<path d="M70.9334 104.532H93.3334V108.266H70.9334V104.532Z" fill="#999999"/>
<path d="M49.8532 73.3467L58.6395 82.133H64.7975L79.2772 73.0834C79.5741 72.8985 79.9155 72.7997 80.2666 72.7997H110.133C111.164 72.7997 112 73.634 112 74.6662V100.8H108.267V76.5333H80.8023L66.3226 85.5829C66.0258 85.7677 65.6843 85.8666 65.3332 85.8666H57.8666C57.3721 85.8666 56.896 85.6706 56.5469 85.3197L47.2135 75.9864L49.8532 73.3467Z" fill="#999999"/>
<path d="M46.8627 68.2286L65.8466 30.2626C67.1178 27.7183 69.6732 26.1354 72.52 26.1317H106.4C109.487 26.1317 112 28.6443 112 31.7317V74.6662L108.267 74.6648V31.7319C108.267 30.7034 107.429 29.8653 106.4 29.8653H72.5218C71.0995 29.8673 69.8207 30.6587 69.1861 31.9316L50.4001 69.5054L50.4002 97.0664L46.6667 97.0647V69.0649C46.6667 68.7757 46.734 68.4883 46.8627 68.2286Z" fill="#999999"/>
<path d="M61.6001 91.4664C64.6876 91.4664 67.2001 93.9789 67.2001 97.0663C67.2001 100.154 64.6876 102.666 61.6001 102.666C58.5127 102.666 56.0001 100.154 56.0001 97.0663C56.0001 93.9789 58.5127 91.4664 61.6001 91.4664ZM61.6001 98.9331C62.6287 98.9331 63.4667 98.0969 63.4667 97.0665C63.4667 96.0362 62.6287 95.2 61.6001 95.2C60.5716 95.2 59.7335 96.0362 59.7335 97.0665C59.7335 98.0969 60.5716 98.9331 61.6001 98.9331Z" fill="#999999"/>
<path d="M80.2667 65.3318H93.3335V50.3984C93.3335 47.311 95.8461 44.7985 98.9335 44.7985C102.021 44.7985 104.534 47.311 104.534 50.3984V74.6649H100.8V50.3984C100.8 49.3699 99.9621 48.5318 98.9335 48.5318C97.905 48.5318 97.0669 49.3699 97.0669 50.3984V67.1983C97.0669 68.2306 96.2306 69.0649 95.2003 69.0649H80.2669C79.2384 69.0649 78.4003 69.9012 78.4003 70.9315C78.4003 71.9618 79.2381 72.7997 80.2666 72.7997L82.1335 72.7981V76.5315H80.2669C77.1795 76.5315 74.6669 74.0189 74.6669 70.9315C74.6669 67.8441 77.1793 65.3318 80.2667 65.3318Z" fill="#999999"/>
<path d="M66.6573 50.9483L75.9891 60.28L73.3492 62.9199L64.0174 53.5882L66.6573 50.9483Z" fill="#999999"/>
<path d="M67.7486 56.5474L70.3885 59.1873L51.7251 77.8506L49.0852 75.2107L67.7486 56.5474Z" fill="#999999"/>
<path d="M41.0668 0H48.5333C49.5656 0 50.3999 0.836276 50.3999 1.86658V106.399C50.3999 107.432 49.5656 108.266 48.5333 108.266H41.0668C40.0345 108.266 39.2002 107.432 39.2002 106.399V1.86658C39.2002 0.836276 40.0345 0 41.0668 0ZM42.9336 104.533H46.667V3.73338H42.9336V104.533Z" fill="#999999"/>
<path d="M0.000297546 95.2008H41.0668V98.9341H0.000297546V95.2008Z" fill="#999999"/>
<path d="M98.9332 98.9319H102.667V102.665H98.9332V98.9319Z" fill="#999999"/>
</g>
</svg>
