<svg width="28" height="34" viewBox="0 0 28 34" fill="none" xmlns="http://www.w3.org/2000/svg">
<path d="M10.068 8.62366C10.2364 8.62366 10.4049 8.55885 10.5333 8.42916L11.7429 7.20842C11.9998 6.9491 11.9998 6.52861 11.7429 6.26923C11.4859 6.00992 11.0693 6.00992 10.8123 6.26923L9.60271 7.48998C9.34577 7.74929 9.34577 8.16978 9.60271 8.42916C9.73128 8.55885 9.89965 8.62366 10.068 8.62366Z" fill="#999999"/>
<path d="M11.9389 8.96128L9.55336 11.3688C9.29642 11.6282 9.29642 12.0486 9.55336 12.308C9.68186 12.4376 9.85024 12.5025 10.0186 12.5025C10.187 12.5025 10.3554 12.4376 10.4839 12.308L12.8694 9.9004C13.1263 9.64108 13.1263 9.2206 12.8694 8.96128C12.6124 8.70197 12.1958 8.70197 11.9389 8.96128Z" fill="#999999"/>
<path d="M4.37423 20.835V30.4141C4.37423 30.7808 4.66881 31.0781 5.03221 31.0781H22.7293C23.0927 31.0781 23.3873 30.7808 23.3873 30.4141V20.835C23.3873 20.4683 23.0927 20.171 22.7293 20.171H5.03221C4.66881 20.171 4.37423 20.4683 4.37423 20.835ZM5.6902 21.4991H22.0713V29.75H5.6902V21.4991Z" fill="#999999"/>
<path d="M26.8228 17.2491H20.8218C21.9517 15.3921 22.5636 13.1376 22.5636 10.7697C22.5636 7.91996 21.6776 5.23469 20.0687 3.20863C18.4255 1.13955 16.228 1.52588e-05 13.8807 1.52588e-05C11.5335 1.52588e-05 9.33599 1.13955 7.69287 3.2087C6.08397 5.23475 5.19793 7.92002 5.19793 10.7698C5.19793 13.1376 5.80979 15.3921 6.93974 17.2492H0.938683C0.575279 17.2492 0.280701 17.5465 0.280701 17.9132C0.280701 18.28 0.575279 18.5773 0.938683 18.5773H1.47902V33.336C1.47902 33.7027 1.7736 34 2.137 34H25.6244C25.9878 34 26.2824 33.7027 26.2824 33.336V18.5772H26.8227C27.1861 18.5772 27.4807 18.2799 27.4807 17.9132C27.4807 17.5464 27.1862 17.2491 26.8228 17.2491ZM6.51383 10.7698C6.51383 5.56366 9.81861 1.32814 13.8807 1.32814C17.9429 1.32814 21.2476 5.56366 21.2476 10.7698C21.2476 13.2012 20.5346 15.4885 19.2341 17.2492H8.52739C7.22682 15.4885 6.51383 13.2011 6.51383 10.7698ZM24.9664 32.6719H2.79505V18.5772H24.9664V32.6719Z" fill="#999999"/>
<path d="M10.854 24.6029C10.4906 24.6029 10.196 24.9002 10.196 25.2669V25.8688H8.09047V25.2669C8.09047 24.9002 7.79589 24.6029 7.43249 24.6029C7.06908 24.6029 6.7745 24.9002 6.7745 25.2669V26.5329C6.7745 26.8997 7.06908 27.197 7.43249 27.197H10.854C11.2174 27.197 11.512 26.8997 11.512 26.5329V25.2669C11.512 24.9002 11.2174 24.6029 10.854 24.6029Z" fill="#999999"/>
<path d="M20.3289 24.6029C19.9655 24.6029 19.671 24.9002 19.671 25.2669V25.8688H17.5654V25.2669C17.5654 24.9002 17.2708 24.6029 16.9074 24.6029C16.544 24.6029 16.2494 24.9002 16.2494 25.2669V26.5329C16.2494 26.8997 16.544 27.197 16.9074 27.197H20.3289C20.6923 27.197 20.9869 26.8997 20.9869 26.5329V25.2669C20.9869 24.9002 20.6923 24.6029 20.3289 24.6029Z" fill="#999999"/>
</svg>
