<svg width="34" height="28" viewBox="0 0 34 28" fill="none" xmlns="http://www.w3.org/2000/svg">
<path d="M32.2843 0.138489H2.00025C0.975804 0.138489 0.142273 0.979315 0.142273 2.0128V21.2768C0.142273 22.3102 0.975804 23.151 2.00025 23.151H2.37239L1.79366 27.0936C1.76537 27.2863 1.82162 27.4818 1.94779 27.6293C2.0739 27.7768 2.25751 27.8616 2.45055 27.8616H4.79556C5.05806 27.8616 5.29586 27.7056 5.40245 27.4637L7.30153 23.151H26.9828L28.8819 27.4637C28.9884 27.7056 29.2264 27.8616 29.4888 27.8616H31.8338C32.0269 27.8616 32.2105 27.7768 32.3366 27.6293C32.4627 27.4818 32.519 27.2863 32.4907 27.0936L31.912 23.151H32.2841C33.3086 23.151 34.1421 22.3102 34.1421 21.2768V2.0128C34.1423 0.979315 33.3087 0.138489 32.2843 0.138489ZM4.36405 26.5219H3.22027L3.71506 23.1511H5.84843L4.36405 26.5219ZM31.0643 26.5219H29.9205L28.4361 23.1511H30.5694L31.0643 26.5219ZM32.8142 21.2768C32.8142 21.5715 32.5765 21.8113 32.2843 21.8113H2.00025C1.70807 21.8113 1.4704 21.5715 1.4704 21.2768V2.0128C1.4704 1.71805 1.70813 1.4783 2.00025 1.4783H32.2842C32.5764 1.4783 32.8141 1.71805 32.8141 2.0128L32.8142 21.2768Z" fill="#999999"/>
<path d="M30.4359 11.8407H18.5047C18.3281 11.8407 18.1588 11.9117 18.0341 12.0379C17.9095 12.1641 17.8399 12.3352 17.8407 12.5135L17.87 19.2337C17.8715 19.6025 18.1684 19.9006 18.534 19.9006H30.4359C30.8026 19.9006 31.0999 19.6006 31.0999 19.2307V12.5105C31.0999 12.1406 30.8026 11.8407 30.4359 11.8407ZM29.7718 18.5608H19.1952L19.1716 13.1804H29.7717L29.7718 18.5608Z" fill="#999999"/>
<path d="M15.7389 11.8407H3.84867C3.48191 11.8407 3.18461 12.1406 3.18461 12.5105V19.2307C3.18461 19.6006 3.48191 19.9006 3.84867 19.9006H15.7682C15.9448 19.9006 16.1142 19.8296 16.2388 19.7034C16.3634 19.5771 16.433 19.406 16.4323 19.2278L16.403 12.5076C16.4014 12.1387 16.1045 11.8407 15.7389 11.8407ZM4.51273 18.5608V13.1804H15.0778L15.1013 18.5608H4.51273Z" fill="#999999"/>
<path d="M30.4359 3.38893H3.84867C3.48191 3.38893 3.18461 3.6889 3.18461 4.0588V9.44439C3.18461 9.81429 3.48191 10.1143 3.84867 10.1143H30.4358C30.8025 10.1143 31.0999 9.81429 31.0999 9.44439V4.0588C31.0999 3.68883 30.8026 3.38893 30.4359 3.38893ZM29.7718 8.77451H4.51273V4.72867H29.7717L29.7718 8.77451Z" fill="#999999"/>
<path d="M23.2495 15.6007H25.6911C26.0578 15.6007 26.3552 15.3007 26.3552 14.9308C26.3552 14.5609 26.0578 14.2609 25.6911 14.2609H23.2495C22.8828 14.2609 22.5855 14.5609 22.5855 14.9308C22.5855 15.3007 22.8828 15.6007 23.2495 15.6007Z" fill="#999999"/>
<path d="M11.0292 14.2609H8.58767C8.22091 14.2609 7.9236 14.5609 7.9236 14.9308C7.9236 15.3007 8.22091 15.6007 8.58767 15.6007H11.0292C11.3959 15.6007 11.6932 15.3007 11.6932 14.9308C11.6932 14.5609 11.3959 14.2609 11.0292 14.2609Z" fill="#999999"/>
</svg>
