<svg width="22" height="34" viewBox="0 0 22 34" fill="none" xmlns="http://www.w3.org/2000/svg">
<path d="M21.2527 0H0.747559C0.380797 0 0.0834961 0.297301 0.0834961 0.664062V33.3359C0.0834961 33.7027 0.380797 34 0.747559 34H21.2527C21.6195 34 21.9168 33.7027 21.9168 33.3359V0.664062C21.9168 0.297301 21.6195 0 21.2527 0ZM20.5887 32.6719H1.41162V1.32812H20.5887V32.6719Z" fill="#999999"/>
<path d="M3.66943 23.7098H9.73843C10.1052 23.7098 10.4025 23.4125 10.4025 23.0458V3.58594C10.4025 3.21918 10.1052 2.92188 9.73843 2.92188H3.66943C3.30267 2.92188 3.00537 3.21918 3.00537 3.58594V23.0458C3.00537 23.4125 3.30267 23.7098 3.66943 23.7098ZM4.3335 4.25H9.07437V22.3817H4.3335V4.25Z" fill="#999999"/>
<path d="M12.2617 23.7098H18.3307C18.6975 23.7098 18.9948 23.4125 18.9948 23.0458V3.58594C18.9948 3.21918 18.6975 2.92188 18.3307 2.92188H12.2617C11.895 2.92188 11.5977 3.21918 11.5977 3.58594V23.0458C11.5977 23.4125 11.895 23.7098 12.2617 23.7098ZM12.9258 4.25H17.6667V22.3817H12.9258V4.25Z" fill="#999999"/>
<path d="M3.66943 31.0782H18.3309C18.6976 31.0782 18.9949 30.7809 18.9949 30.4141V25.7459C18.9949 25.3791 18.6976 25.0818 18.3309 25.0818H3.66943C3.30267 25.0818 3.00537 25.3791 3.00537 25.7459V30.4141C3.00537 30.7809 3.30267 31.0782 3.66943 31.0782ZM4.33349 26.41H17.6668V29.7501H4.33349V26.41Z" fill="#999999"/>
<path d="M14.3495 12.0478C13.9827 12.0478 13.6854 12.3451 13.6854 12.7119V14.2718C13.6854 14.6385 13.9827 14.9358 14.3495 14.9358C14.7162 14.9358 15.0135 14.6385 15.0135 14.2718V12.7119C15.0135 12.3451 14.7162 12.0478 14.3495 12.0478Z" fill="#999999"/>
<path d="M7.64966 12.0478C7.2829 12.0478 6.9856 12.3451 6.9856 12.7119V14.2718C6.9856 14.6385 7.2829 14.9358 7.64966 14.9358C8.01642 14.9358 8.31372 14.6385 8.31372 14.2718V12.7119C8.31372 12.3451 8.01642 12.0478 7.64966 12.0478Z" fill="#999999"/>
<path d="M14.903 27.4159H14.53C14.1633 27.4159 13.866 27.7132 13.866 28.08C13.866 28.4467 14.1633 28.744 14.53 28.744H14.903C15.2698 28.744 15.5671 28.4467 15.5671 28.08C15.5671 27.7132 15.2698 27.4159 14.903 27.4159Z" fill="#999999"/>
<path d="M7.46968 27.4159H7.09668C6.72992 27.4159 6.43262 27.7132 6.43262 28.08C6.43262 28.4467 6.72992 28.744 7.09668 28.744H7.46968C7.83644 28.744 8.13375 28.4467 8.13375 28.08C8.13375 27.7132 7.83644 27.4159 7.46968 27.4159Z" fill="#999999"/>
</svg>
