<svg width="34" height="31" viewBox="0 0 34 31" fill="none" xmlns="http://www.w3.org/2000/svg">
<path d="M33.0974 9.16036H31.7306C31.8855 8.84579 31.9726 8.49215 31.9726 8.11855V6.83281C31.9726 6.46657 31.6753 6.16957 31.3086 6.16957H24.3538C23.9871 6.16957 23.6898 6.46657 23.6898 6.83281V8.11855C23.6898 8.49215 23.7769 8.84579 23.9318 9.16036H20.6019L21.7415 4.90757C21.7949 4.70841 21.7524 4.49584 21.6267 4.33228C21.501 4.16873 21.3064 4.0729 21.0999 4.0729H20.6909C21.6532 2.74888 21.3653 0.787702 21.3515 0.697768C21.3074 0.411848 21.0829 0.187542 20.7967 0.143305C20.699 0.128183 18.389 -0.211459 17.0916 1.08722C16.9671 1.21191 16.8576 1.34595 16.7615 1.48642C16.6655 1.34595 16.556 1.21197 16.4315 1.08728C15.1341 -0.211591 12.8241 0.128249 12.7264 0.143305C12.4402 0.187542 12.2158 0.411914 12.1717 0.697768C12.1579 0.787636 11.8699 2.74882 12.8323 4.0729H12.4232C12.2168 4.0729 12.0221 4.16873 11.8964 4.33228C11.7707 4.49584 11.7283 4.70841 11.7817 4.90757L12.9212 9.16036H9.59133C9.74625 8.84579 9.83338 8.49215 9.83338 8.11855V6.83281C9.83338 6.46657 9.53601 6.16957 9.16931 6.16957H2.21439C1.84769 6.16957 1.55033 6.46657 1.55033 6.83281V8.11855C1.55033 8.49215 1.63745 8.84579 1.79238 9.16036H0.425537C0.0588418 9.16036 -0.238525 9.45735 -0.238525 9.82359C-0.238525 10.1898 0.0588418 10.4868 0.425537 10.4868H0.631861V12.7593C0.631861 14.2745 1.69317 15.5468 3.11233 15.8737L2.51003 29.7388C2.50219 29.9195 2.56853 30.0956 2.69384 30.2262C2.81915 30.3569 2.99234 30.4308 3.17349 30.4308H4.91141C5.23435 30.4308 5.51046 30.1987 5.56571 29.881L7.18436 20.5664L14.7025 15.9551H18.8207L26.3821 20.593L27.996 29.881C28.0512 30.1987 28.3273 30.4308 28.6503 30.4308H30.3883C30.5695 30.4308 30.7426 30.3569 30.868 30.2262C30.9933 30.0956 31.0596 29.9195 31.0518 29.7388L30.4491 15.8646C31.849 15.5238 32.8912 14.2608 32.8912 12.7593V10.4868H33.0974C33.4641 10.4868 33.7615 10.1898 33.7615 9.82359C33.7615 9.45735 33.4641 9.16036 33.0974 9.16036ZM25.0178 8.11855V7.49604H30.6444V8.11855C30.6444 8.69298 30.1765 9.16036 29.6013 9.16036H26.0609C25.4858 9.16036 25.0178 8.69298 25.0178 8.11855ZM18.0318 2.0241C18.5381 1.51726 19.4459 1.40902 20.0735 1.41711C20.0828 1.9987 20.0036 2.9314 19.4688 3.4667C19.0094 3.92652 18.2211 4.05864 17.6088 4.0729H17.4271C17.4178 3.49117 17.4972 2.5592 18.0318 2.0241ZM14.0542 3.4667C13.5468 2.959 13.4392 2.04924 13.447 1.41943C14.027 1.40988 14.9573 1.4898 15.4911 2.02417C15.9686 2.50203 16.0921 3.33611 16.0983 3.95769C16.0981 3.99178 16.0981 4.02508 16.0983 4.05764C16.0983 4.06275 16.0982 4.06785 16.0981 4.0729H15.9233C15.3107 4.05943 14.5155 3.92851 14.0542 3.4667ZM13.2882 5.39936H20.2347L19.2269 9.16036H14.2959L13.2882 5.39936ZM2.87845 8.11855V7.49604H8.50505V8.11855C8.50505 8.69298 8.03709 9.16036 7.46194 9.16036H3.92156C3.34642 9.16036 2.87845 8.69298 2.87845 8.11855ZM4.35267 29.1042H3.86704L4.4382 15.955H6.63764L4.35267 29.1042ZM7.48704 18.8239L7.98556 15.955H12.1644L7.48704 18.8239ZM21.3585 15.955H25.576L26.0792 18.8505L21.3585 15.955ZM29.2089 29.1042L26.924 15.955H29.1235L29.6947 29.1042H29.2089ZM31.563 12.7592C31.563 13.79 30.7233 14.6286 29.6912 14.6286H3.83171C2.79963 14.6286 1.95999 13.79 1.95999 12.7592V10.4868H31.5629L31.563 12.7592Z" fill="#999999"/>
</svg>
