<svg width="34" height="26" viewBox="0 0 34 26" fill="none" xmlns="http://www.w3.org/2000/svg">
<path d="M33.3359 18.0736H32.8698V15.3501C32.8698 14.2204 32.0098 13.283 30.895 13.1281V0.832637C30.895 0.474744 30.5977 0.184631 30.2309 0.184631H27.5237C27.1569 0.184631 26.8596 0.474744 26.8596 0.832637V2.0494H22.2768C20.9198 0.84482 19.1735 0.184631 17.3291 0.184631C15.4847 0.184631 13.7385 0.84482 12.3814 2.0494H7.1404V0.832637C7.1404 0.474744 6.8431 0.184631 6.47634 0.184631H3.76909C3.40232 0.184631 3.10502 0.474744 3.10502 0.832637V13.128C1.9902 13.283 1.13023 14.2204 1.13023 15.35V18.0735H0.664062C0.297301 18.0735 0 18.3637 0 18.7216V23.099C0 23.4569 0.297301 23.747 0.664062 23.747H2.33352L2.68115 25.3052C2.74756 25.603 3.0177 25.8154 3.33001 25.8154H5.99941C6.36617 25.8154 6.66347 25.5253 6.66347 25.1674V23.7471H27.3365V25.1674C27.3365 25.5253 27.6338 25.8154 28.0006 25.8154H30.67C30.9823 25.8154 31.2524 25.603 31.3188 25.3052L31.6665 23.747H33.3359C33.7027 23.747 34 23.4569 34 23.099V18.7216C34 18.3637 33.7027 18.0736 33.3359 18.0736ZM28.1877 1.48064H29.5669V13.1055H28.1877V1.48064ZM17.6641 13.1055V10.7229C17.6641 9.90588 18.3457 9.24123 19.1834 9.24123H25.3402C26.178 9.24123 26.8596 9.90588 26.8596 10.7229V13.1055H17.6641ZM7.1404 13.1055V10.7234C7.1404 9.90614 7.82179 9.24129 8.65931 9.24129H14.8171C15.6546 9.24129 16.336 9.90614 16.336 10.7234V13.1055H7.1404ZM12.6451 3.34541C12.8188 3.34541 12.9855 3.27899 13.1097 3.1604C14.2433 2.0772 15.7418 1.48064 17.3291 1.48064C18.9164 1.48064 20.4149 2.0772 21.5486 3.1604C21.6727 3.27899 21.8394 3.34541 22.0131 3.34541H26.8596V8.37458C26.4197 8.10274 25.8984 7.94521 25.3402 7.94521H19.1834C18.3075 7.94521 17.5228 8.33305 17 8.94185C16.4773 8.33305 15.6928 7.94521 14.8171 7.94521H8.65931C8.1013 7.94521 7.58027 8.10274 7.1404 8.37452V3.34541H12.6451ZM4.43315 1.48064H5.81227V13.1055H4.43315V1.48064ZM2.45836 15.3501C2.45836 14.8271 2.89471 14.4016 3.43114 14.4016H30.5689C31.1053 14.4016 31.5416 14.827 31.5416 15.3501V18.0736H2.45836V15.3501ZM5.33534 24.5195H3.86504L3.69272 23.7472H5.33534V24.5195ZM30.135 24.5195H28.6647V23.7472H30.3073L30.135 24.5195ZM32.6719 22.4511H1.32812V19.3696H32.6719V22.4511Z" fill="#999999"/>
</svg>
