<svg width="30" height="34" viewBox="0 0 30 34" fill="none" xmlns="http://www.w3.org/2000/svg">
<path fill-rule="evenodd" clip-rule="evenodd" d="M1.28289 1.52588e-05H28.7171C29.0857 1.52588e-05 29.3846 0.30057 29.3846 0.671316V4.70749C29.3846 5.07823 29.0857 5.37879 28.7171 5.37879H26.8066V33.3287C26.8066 33.6995 26.5077 34 26.139 34H3.86097C3.49231 34 3.19344 33.6995 3.19344 33.3287V5.37879H1.28289C0.914224 5.37879 0.615356 5.07823 0.615356 4.70749V0.671316C0.615356 0.30057 0.914224 1.52588e-05 1.28289 1.52588e-05ZM8.53615 10.1911H13.0086V8.09308H8.53615V10.1911ZM25.4596 11.5327C25.4517 11.5332 25.4438 11.5337 25.4357 11.5337L4.56423 11.5337C4.5557 11.5337 4.54728 11.5331 4.53886 11.5325C4.53541 11.5323 4.53196 11.5321 4.5285 11.5319V18.4501C4.53245 18.4499 4.53639 18.4496 4.54032 18.4493C4.54823 18.4488 4.55616 18.4483 4.56423 18.4483H5.86588L6.4829 13.4454C6.52437 13.1092 6.80844 12.8567 7.14535 12.8567H9.80207C10.139 12.8567 10.4231 13.1092 10.4645 13.4454L11.0549 18.2318L11.6452 13.4454C11.6867 13.1092 11.9707 12.8567 12.3077 12.8567H14.9644C15.3013 12.8567 15.5854 13.1092 15.6268 13.4454L16.2172 18.2326L16.8076 13.4454C16.8491 13.1092 17.1332 12.8567 17.4701 12.8567H20.1268C20.4637 12.8567 20.7478 13.1092 20.7893 13.4454L21.4063 18.4483H25.4357C25.4443 18.4483 25.4526 18.4488 25.461 18.4494C25.4645 18.4496 25.468 18.4499 25.4715 18.4501V11.5319C25.4675 11.5321 25.4635 11.5324 25.4596 11.5327ZM13.4531 23.1852V26.571H14.7748V23.1852C14.7748 22.8188 14.4783 22.5207 14.1139 22.5207C13.7495 22.5207 13.4531 22.8188 13.4531 23.1852ZM16.1232 23.1852V26.571H17.4449L17.4449 23.1852C17.4449 22.8188 17.1484 22.5207 16.7841 22.5207C16.4197 22.5207 16.1232 22.8188 16.1232 23.1852ZM18.7933 26.571H20.115L20.1149 23.1852C20.1149 22.8188 19.8185 22.5207 19.4541 22.5207C19.0898 22.5207 18.7933 22.8188 18.7933 23.1852V26.571ZM21.4635 26.571H22.7851L22.7851 23.1852C22.7851 22.8188 22.4886 22.5207 22.1243 22.5207C21.7599 22.5207 21.4635 22.8188 21.4635 23.1852V26.571ZM20.7893 21.6947C21.1432 21.3738 21.6114 21.1781 22.1243 21.1781C23.2248 21.1781 24.1202 22.0785 24.1202 23.1852V26.571H25.4357C25.4443 26.571 25.4526 26.5715 25.461 26.5721C25.4645 26.5723 25.468 26.5725 25.4715 26.5727V19.789C25.4596 19.7896 25.4478 19.7908 25.4357 19.7908H4.56423C4.55571 19.7908 4.54729 19.7902 4.53888 19.7897C4.53542 19.7894 4.53196 19.7892 4.5285 19.789V26.5727C4.53245 26.5725 4.53638 26.5723 4.54031 26.572C4.54823 26.5715 4.55615 26.571 4.56423 26.571H12.1181V23.1852C12.1181 22.0785 13.0135 21.1781 14.1141 21.1781C14.627 21.1781 15.0952 21.3739 15.4491 21.6947C15.803 21.3738 16.2712 21.1781 16.7842 21.1781C17.2971 21.1781 17.7653 21.3738 18.1192 21.6947C18.4731 21.3738 18.9413 21.1781 19.4542 21.1781C19.9671 21.1781 20.4353 21.3738 20.7893 21.6947ZM7.73529 14.1993L7.21125 18.4482H9.73637L9.21233 14.1993H7.73529ZM12.8975 14.1993L12.3735 18.4482H14.8986L14.3746 14.1993H12.8975ZM18.06 14.1993L17.5359 18.4482H20.061L19.537 14.1993H18.06ZM4.5285 27.9117V32.6574H25.4715V27.9117C25.4675 27.9119 25.4635 27.9122 25.4596 27.9124C25.4517 27.913 25.4438 27.9135 25.4357 27.9135H4.56423C4.55571 27.9135 4.54729 27.9129 4.53888 27.9124C4.53542 27.9121 4.53196 27.9119 4.5285 27.9117ZM1.95042 4.03619H28.0495V1.34262H1.95042V4.03619ZM25.4357 10.1911C25.4443 10.1911 25.4526 10.1917 25.461 10.1922C25.4645 10.1925 25.468 10.1927 25.4715 10.1929V5.37879H4.5285V10.1929C4.53246 10.1927 4.53639 10.1924 4.54033 10.1922C4.54824 10.1917 4.55616 10.1911 4.56423 10.1911H7.20114V7.42184C7.20114 7.0511 7.50001 6.75054 7.86868 6.75054H13.6762C14.0449 6.75054 14.3437 7.0511 14.3437 7.42184V10.1911H25.4357Z" fill="#999999"/>
<path d="M21.6978 29.8154H8.82238C8.3561 29.8154 7.9781 30.1667 7.9781 30.6C7.9781 31.0333 8.3561 31.3846 8.82238 31.3846H21.6978C22.164 31.3846 22.542 31.0333 22.542 30.6C22.542 30.1667 22.164 29.8154 21.6978 29.8154Z" fill="#999999"/>
</svg>
