<svg width="34" height="28" viewBox="0 0 34 28" fill="none" xmlns="http://www.w3.org/2000/svg">
<path d="M10.2663 17.6615H10.7667C11.0797 17.6615 11.3334 17.4078 11.3334 17.0948V14.8282C11.3334 13.8893 10.5723 13.1282 9.63338 13.1282H3.40007V1.22822C3.40007 0.915284 3.14635 0.66156 2.83341 0.66156H0.566753C0.253812 0.66156 8.8304e-05 0.915284 8.8304e-05 1.22822V17.0948C8.8304e-05 17.4078 0.253812 17.6615 0.566753 17.6615H1.06712L0.00348829 27.2324C-0.0309366 27.5435 0.193321 27.8235 0.504349 27.858C0.525032 27.8602 0.545857 27.8614 0.566753 27.8614H2.26675C2.5556 27.8614 2.79821 27.6442 2.83001 27.3571L3.91007 17.6615H7.42906L8.50572 27.3571C8.53738 27.6434 8.77871 27.8603 9.06672 27.8614H10.7667C11.0797 27.8614 11.3334 27.6078 11.3334 27.2949C11.3334 27.274 11.3323 27.2532 11.33 27.2324L10.2663 17.6615ZM1.75958 26.7281H1.19972L2.21008 17.6615H2.76994L1.75958 26.7281ZM9.57671 26.7281L8.56635 17.6615H9.12622L10.1337 26.7281H9.57671ZM10.2 16.5282H1.13342V1.79489H2.26675V13.6948C2.26675 14.0078 2.52047 14.2615 2.83341 14.2615H9.63338C9.94632 14.2615 10.2 14.5152 10.2 14.8282V16.5282Z" fill="white"/>
<path d="M33.9966 27.2324L32.9329 17.6615H33.4333C33.7462 17.6615 34 17.4078 34 17.0948V1.22822C34 0.915284 33.7462 0.66156 33.4333 0.66156H31.1666C30.8537 0.66156 30.6 0.915284 30.6 1.22822V13.1282H24.3667C23.4278 13.1282 22.6667 13.8893 22.6667 14.8282V17.0948C22.6667 17.4078 22.9204 17.6615 23.2333 17.6615H23.7337L22.6701 27.2324C22.6356 27.5435 22.8599 27.8235 23.1709 27.858C23.1916 27.8602 23.2124 27.8614 23.2333 27.8614H24.9333C25.2222 27.8614 25.4648 27.6442 25.4966 27.3571L26.5766 17.6615H30.0956L31.1723 27.3571C31.204 27.6434 31.4453 27.8603 31.7333 27.8614H33.4333C33.7462 27.8614 33.9999 27.6078 34 27.2949C34 27.274 33.9989 27.2531 33.9966 27.2324ZM24.4233 26.7281H23.8635L24.8766 17.6615H25.4365L24.4233 26.7281ZM32.2433 26.7281L31.2329 17.6615H31.7928L32.7975 26.7281H32.2433ZM32.8666 16.5282H23.8V14.8282C23.8 14.5152 24.0537 14.2615 24.3667 14.2615H31.1666C31.4796 14.2615 31.7333 14.0078 31.7333 13.6948V1.79489H32.8666V16.5282Z" fill="white"/>
<path d="M25.5 10.2949V8.0282C25.5 7.71526 25.2463 7.46154 24.9333 7.46154H9.06671C8.75377 7.46154 8.50005 7.71526 8.50005 8.0282V10.2949C8.50005 10.6078 8.75377 10.8615 9.06671 10.8615H14.7334V27.2948C14.7334 27.6077 14.9871 27.8615 15.3 27.8615H18.7C19.0129 27.8615 19.2667 27.6077 19.2667 27.2948V10.8615H24.9333C25.2463 10.8615 25.5 10.6078 25.5 10.2949ZM18.1333 26.7281H15.8667V10.8615H18.1333V26.7281ZM24.3666 9.72819H9.63338V8.59486H24.3666V9.72819Z" fill="white"/>
</svg>
