<svg width="34" height="34" viewBox="0 0 34 34" fill="none" xmlns="http://www.w3.org/2000/svg">
<path d="M11.9 7.62939e-05H0.566644C0.253871 7.62939e-05 0 0.253947 0 0.566721V33.4334C0 33.7462 0.253871 34.0001 0.566644 34.0001H11.9C12.2128 34.0001 12.4667 33.1795 12.4667 32.8667L12.4666 3.40001V0.566721C12.4666 0.253947 12.2128 7.62939e-05 11.9 7.62939e-05ZM11.3334 32.8667H1.13336V1.13343H11.3334V32.8667Z" fill="#999999"/>
<path d="M9.06664 16.4334H7.36663C7.05386 16.4334 6.79999 16.6873 6.79999 17.0001C6.79999 17.3128 7.05386 17.5667 7.36663 17.5667H7.93328H9.06664C9.37941 17.5667 9.63328 17.3128 9.63328 17.0001C9.63328 16.6873 9.37948 16.4334 9.06664 16.4334Z" fill="#999999"/>
<path d="M19.2666 7.93341C16.2163 7.93341 14.1666 9.07182 14.1666 10.7668V11.9001C14.1666 12.2128 14.4205 12.4667 14.7333 12.4667H15.8666V17.5667C15.8666 17.8795 16.1205 18.1334 16.4333 18.1334H22.1C22.4128 18.1334 22.6666 17.8795 22.6666 17.5667V12.4667H23.8C24.1128 12.4667 24.3666 12.2128 24.3666 11.9001V10.7667C24.3666 10.1046 24.0538 9.52741 23.4908 9.06985C22.9549 8.63434 22.1923 8.30719 21.2569 8.11832C21.1171 8.09009 20.9735 8.06496 20.8262 8.04301C20.3437 7.97112 19.8217 7.93341 19.2666 7.93341ZM23.2333 11.3334H22.1C21.7872 11.3334 21.5333 11.5873 21.5333 11.9001V17.0001H17V11.9001C17 11.5873 16.7461 11.3334 16.4333 11.3334H15.3V10.7668C15.3 9.94287 16.69 9.06677 19.2666 9.06677C21.8433 9.06677 23.2333 9.94287 23.2333 10.7668L23.2333 11.3334Z" fill="#999999"/>
<path d="M27.2 7.93341C26.5377 7.93341 25.9114 7.98831 25.3351 8.09657C25.2978 8.10359 25.2606 8.11084 25.2236 8.11831C25.1806 8.12701 25.1379 8.13601 25.0954 8.14532C24.8353 8.20256 24.65 8.43259 24.65 8.69895C24.65 8.7437 24.6553 8.78743 24.6652 8.82948C24.7095 9.01699 24.8474 9.17125 25.0324 9.23487C25.0528 9.24191 25.0739 9.24783 25.0954 9.25257C26.2075 9.49607 26.9774 9.97761 27.1589 10.5199C27.186 10.601 27.2 10.6835 27.2 10.7667V11.3334H26.0666C25.7539 11.3334 25.5 11.5873 25.5 11.9001L25.5 17.5666C25.5 17.8794 25.7539 18.1333 26.0666 18.1333H30.0333C30.3461 18.1333 30.6 17.8794 30.6 17.5666V12.4666H31.7333C32.0461 12.4666 32.3 12.2128 32.3 11.9V10.7666C32.3 9.61208 31.3488 8.71574 29.7781 8.2616C29.0431 8.04909 28.1724 7.93341 27.2 7.93341ZM31.1667 11.3334H30.0333C29.7205 11.3334 29.4667 11.5873 29.4667 11.9001V17.0001H26.6333L26.6333 12.4666H27.7666C28.0794 12.4666 28.3333 12.2128 28.3333 11.9V10.7666C28.3333 10.115 28.0188 9.53308 27.4448 9.06956C29.8644 9.12282 31.1667 9.96883 31.1667 10.7667V11.3334Z" fill="#999999"/>
<path d="M32.3 21.5334H12.4666C12.4666 21.5334 12.4666 21.7954 12.4666 22.1082C12.4666 22.1082 12.4666 23.5445 12.4666 24.4649C12.4666 24.7776 12.4667 24.9334 12.4667 24.9334L32.3 24.9334C32.6128 24.9334 32.8666 24.6795 32.8666 24.3667V23.8001V22.1001C32.8666 21.7873 32.6128 21.5334 32.3 21.5334ZM31.7334 23.8001H12.4667V22.6667H31.7333L31.7334 23.8001Z" fill="#999999"/>
<path d="M15.3 3.40001V5.10005C15.3 5.41283 15.5539 5.6667 15.8666 5.6667C16.1794 5.6667 16.4333 5.41283 16.4333 5.10005V3.40001H15.3Z" fill="#999999"/>
<path d="M19.8333 3.40001H18.7V6.23334C18.7 5.92057 18.9539 5.66672 19.2667 5.66672C19.4652 5.66672 19.656 5.70095 19.8333 5.76383V3.40001Z" fill="#999999"/>
<path d="M24.3667 3.40001H23.2334V6.23334C23.2334 5.92057 23.4873 5.66672 23.8 5.66672C23.9986 5.66672 24.1894 5.70095 24.3667 5.76383V3.40001Z" fill="#999999"/>
<path d="M28.9 3.40001H27.7667V6.23334C27.7667 5.92057 28.0206 5.66672 28.3333 5.66672C28.5319 5.66672 28.7227 5.70095 28.9 5.76383V3.40001Z" fill="#999999"/>
<path d="M31.1667 3.40001V5.10005C31.1667 5.41283 31.4206 5.6667 31.7334 5.6667C32.0461 5.6667 32.3 5.41283 32.3 5.10005V3.40001H31.1667Z" fill="#999999"/>
<path fill-rule="evenodd" clip-rule="evenodd" d="M12.4666 0.566721V3.40001H15.3H16.4333H18.7H19.8333H23.2334H24.3667H27.7667H28.9H31.1667H32.3H33.4334C33.7461 3.40001 34 3.14614 34 2.83337V0.566721C34 0.253947 33.7461 7.62939e-05 33.4334 7.62939e-05H11.9C12.2128 7.62939e-05 12.4666 0.253947 12.4666 0.566721ZM12.4667 2.26672H32.8666V1.13343H12.4667V2.26672Z" fill="#999999"/>
<path d="M7.36663 17.5667C7.05386 17.5667 6.79999 17.3128 6.79999 17.0001V18.7001C6.79999 19.0128 7.05386 19.2667 7.36663 19.2667C7.67941 19.2667 7.93328 19.0128 7.93328 18.7001V17.5667H7.36663Z" fill="#999999"/>
<path d="M22.1 29.4667C22.1 29.7795 22.3538 30.0333 22.6666 30.0333C22.9794 30.0333 23.2333 29.7795 23.2333 29.4667V28.9H22.1V29.4667Z" fill="#999999"/>
<path d="M12.4667 32.8667C12.4667 33.1795 12.2128 34.0001 11.9 34.0001L33.4334 34C33.7461 34 34 33.7461 34 33.4334V24.3667C34 24.0539 33.7461 23.8001 33.4334 23.8001H32.8666V24.3667C32.8666 24.6795 32.6128 24.9334 32.3 24.9334L12.4667 24.9334H32.8666V32.8667H12.4667Z" fill="#999999"/>
<path fill-rule="evenodd" clip-rule="evenodd" d="M14.1666 26.0667C13.8539 26.0667 13.6 26.3206 13.6 26.6334V31.1667C13.6 31.4795 13.8539 31.7334 14.1666 31.7334H31.1666C31.4794 31.7334 31.7333 31.4795 31.7333 31.1667V26.6334C31.7334 26.3206 31.4795 26.0667 31.1666 26.0667H14.1666ZM14.7334 30.6001H30.6V27.2001H14.7334V30.6001Z" fill="#999999"/>
<path d="M20.9667 27.7667C20.6539 27.7667 20.4 28.0206 20.4 28.3333C20.4 28.6461 20.6539 28.9 20.9667 28.9H22.1H23.2333H24.3667C24.6794 28.9 24.9333 28.6461 24.9333 28.3333C24.9333 28.0206 24.6795 27.7667 24.3667 27.7667H20.9667Z" fill="#999999"/>
<path d="M18.7 6.23334C18.7 6.54611 18.9539 6.79998 19.2667 6.79998C19.5794 6.79998 19.8333 6.54611 19.8333 6.23334V5.76383C19.656 5.70095 19.4652 5.66672 19.2667 5.66672C18.9539 5.66672 18.7 5.92057 18.7 6.23334Z" fill="#999999"/>
<path d="M19.8333 6.23334C19.8333 6.54611 19.5794 6.79998 19.2667 6.79998C19.5789 6.79998 19.8333 7.05441 19.8333 7.36665C19.8333 7.6789 19.5789 7.93341 19.2666 7.93341C19.8217 7.93341 20.3437 7.97112 20.8262 8.04301C20.9165 7.8356 20.9667 7.60682 20.9667 7.36659C20.9667 6.62791 20.4929 5.99771 19.8333 5.76383V6.23334Z" fill="#999999"/>
<path d="M23.2334 6.23334C23.2334 6.54611 23.4873 6.79998 23.8 6.79998C24.1128 6.79998 24.3667 6.54611 24.3667 6.23334V5.76383C24.1894 5.70095 23.9986 5.66672 23.8 5.66672C23.4873 5.66672 23.2334 5.92057 23.2334 6.23334Z" fill="#999999"/>
<path d="M27.7667 6.23334C27.7667 6.54611 28.0206 6.79998 28.3333 6.79998C28.6461 6.79998 28.9 6.54611 28.9 6.23334V5.76383C28.7227 5.70095 28.5319 5.66672 28.3333 5.66672C28.0206 5.66672 27.7667 5.92057 27.7667 6.23334Z" fill="#999999"/>
<path d="M23.4908 9.06985C24.0697 9.08327 24.5844 9.14214 25.0324 9.23487C24.8474 9.17125 24.7095 9.01699 24.6652 8.82948C24.6553 8.78743 24.65 8.7437 24.65 8.69895C24.65 8.43259 24.8353 8.20256 25.0954 8.14532C25.1379 8.13601 25.1806 8.12701 25.2236 8.11831C24.626 7.99765 23.9579 7.93341 23.2333 7.93341C22.528 7.93341 21.8636 7.99566 21.2569 8.11832C22.1923 8.30719 22.9549 8.63434 23.4908 9.06985Z" fill="#999999"/>
<path fill-rule="evenodd" clip-rule="evenodd" d="M27.1589 10.5199C26.9774 9.97761 26.2075 9.49607 25.0954 9.25257C25.0739 9.24783 25.0528 9.24191 25.0324 9.23487C26.2583 9.48865 26.9845 9.99604 27.1589 10.5199ZM23.4781 9.06956C24.0521 9.53308 24.3666 10.1151 24.3666 10.7667C24.3666 10.1046 24.0538 9.52741 23.4908 9.06985L23.4781 9.06956Z" fill="#999999"/>
<path d="M22.6666 17.5667C22.6666 17.8795 22.4128 18.1334 22.1 18.1334L26.0666 18.1333C25.7539 18.1333 25.5 17.8794 25.5 17.5666L25.5 11.9001V17.0001H22.6666L22.6666 17.5667Z" fill="#999999"/>
<path fill-rule="evenodd" clip-rule="evenodd" d="M28.3333 6.79998C28.6456 6.79998 28.9 7.05441 28.9 7.36665C28.9 7.6789 28.4529 7.97156 28.1407 7.97156C28.7399 8.02167 29.289 8.1202 29.7781 8.2616C29.9398 8.00148 30.0333 7.69473 30.0333 7.36659C30.0333 6.62791 29.5596 5.99771 28.9 5.76383V6.23334C28.9 6.54611 28.6461 6.79998 28.3333 6.79998Z" fill="#999999"/>
<path fill-rule="evenodd" clip-rule="evenodd" d="M23.8 6.79998C24.1123 6.79998 24.3667 7.05441 24.3667 7.36665C24.3667 7.6789 24.0778 7.94532 23.7655 7.94532C24.2873 7.96903 24.7753 8.02779 25.2236 8.11831C25.2606 8.11084 25.2978 8.10359 25.3351 8.09657C25.4408 7.87526 25.5 7.6277 25.5 7.36659C25.5 6.62791 25.0263 5.99771 24.3667 5.76383V6.23334C24.3667 6.54611 24.1128 6.79998 23.8 6.79998Z" fill="#999999"/>
</svg>
